<svg width="126" height="140" viewBox="0 0 126 140" fill="none" xmlns="http://www.w3.org/2000/svg">
<g clip-path="url(#clip0_176_226)">
<path d="M77.1779 20.1073C47.7666 12.0751 20.7883 38.1216 23.8118 66.619H40.5569C36.8179 34.7048 75.9793 17.8891 99.7195 37.102C97.2933 32.9029 94.0475 29.2346 90.1751 26.315C86.3027 23.3955 81.8827 21.2844 77.1779 20.1073Z" fill="url(#paint0_linear_176_226)"/>
<path d="M77.1779 20.1073C47.7666 12.0751 20.7883 38.1216 23.8118 66.619H40.5569C36.8179 34.7048 75.9793 17.8891 99.7195 37.102C97.2933 32.9029 94.0475 29.2346 90.1751 26.315C86.3027 23.3955 81.8827 21.2844 77.1779 20.1073Z" fill="url(#paint1_linear_176_226)"/>
<path style="mix-blend-mode:screen" d="M77.1779 20.1073C47.7666 12.0751 20.7883 38.1216 23.8118 66.619C23.3365 61.6067 23.7852 56.5497 25.1356 51.6995C28.0696 41.771 35.2793 30.3578 46.0313 24.6869C60.3076 17.0841 72.3118 19.8927 77.1779 20.1073Z" fill="url(#paint2_radial_176_226)"/>
<path d="M23.7401 61.8605L40.7178 66.6011C36.9788 34.7585 76.1224 17.8891 99.8625 37.1556C97.7873 33.381 84.0835 26.4222 69.8787 28.4794C54.6542 30.6082 44.1348 39.0519 40.4495 56.5832C40.36 57.0125 31.8622 61.5385 31.8622 61.5385C31.8622 61.5385 23.6865 61.3417 23.7401 61.8605Z" fill="url(#paint3_linear_176_226)"/>
<path style="mix-blend-mode:multiply" opacity="0.5" d="M99.7194 37.102C75.9793 17.8891 36.8178 34.7048 40.5569 66.5653H23.8117C23.3445 62.2157 23.574 57.8194 24.4915 53.542C24.0443 63.0769 29.8586 62.6297 33.0251 57.4597C35.3866 53.6673 40.1096 38.1753 57.785 30.4114C75.4605 22.6476 91.0785 30.1252 93.4579 31.1449C97.8052 32.9338 87.2858 23.22 74.1724 19.4633C75.1854 19.6449 76.1885 19.8777 77.1779 20.161C81.8773 21.3337 86.2937 23.4373 90.1656 26.3472C94.0375 29.2571 97.2862 32.9142 99.7194 37.102Z" fill="url(#paint4_linear_176_226)"/>
<path d="M48.8041 54.5259C47.3372 53.22 32.7031 61.8426 32.1485 62.1109C31.5939 62.1109 14.5625 61.0733 13.8469 62.898C13.1313 64.7227 36.7283 82.2898 36.943 82.1825C37.1577 82.0751 50.2354 55.7961 48.8041 54.5259Z" fill="url(#paint5_linear_176_226)"/>
<path d="M48.8042 54.5259C48.2317 54.025 47.3193 59.1234 44.4211 65.8139C42.0884 70.9391 39.4969 75.9426 36.6568 80.805C36.6568 80.805 31.9338 78.3721 29.5007 76.7263C33.5439 79.839 36.7999 82.2004 36.8715 82.093C36.943 81.9857 50.2354 55.7961 48.8042 54.5259Z" fill="url(#paint6_linear_176_226)"/>
<path style="mix-blend-mode:screen" d="M48.8042 54.5259C47.3372 53.22 32.7031 61.8426 32.1485 62.1109C31.5939 62.1109 14.5625 61.0733 13.8469 62.898C15.5138 62.4891 17.2316 62.3264 18.9456 62.415C24.4379 62.5581 32.1485 63.3989 32.2916 63.3631C32.4347 63.3274 40.7536 58.2826 45.7092 55.6351C46.7142 55.1949 47.7483 54.8243 48.8042 54.5259Z" fill="url(#paint7_radial_176_226)"/>
<path style="mix-blend-mode:multiply" opacity="0.5" d="M48.8041 54.5259C47.3371 53.22 32.703 61.8426 32.1484 62.1109C31.5938 62.1109 36.7283 82.2361 36.943 82.1825C37.1577 82.1288 50.2353 55.7961 48.8041 54.5259Z" fill="url(#paint8_linear_176_226)"/>
<path style="mix-blend-mode:multiply" opacity="0.5" d="M17.1745 64.6154C16.7451 66.0823 35.5297 79.2844 36.4242 78.9266C37.3187 78.5689 48.3033 57.0304 46.5143 57.2451C44.7252 57.4597 33.9912 64.4007 32.4347 64.6154C30.8783 64.83 17.6217 63.1485 17.1745 64.6154Z" fill="url(#paint9_linear_176_226)"/>
<path style="mix-blend-mode:screen" d="M31.9159 63.1485C31.9159 63.1485 33.5439 71.61 34.4205 74.9374C35.1344 77.3655 35.9764 79.754 36.943 82.093L31.9159 63.1485Z" fill="url(#paint10_radial_176_226)"/>
<path style="mix-blend-mode:screen" opacity="0.5" d="M24.3306 53.9356C24.3306 53.9356 27.4256 35.653 43.634 25.6351C59.8424 15.6172 77.3926 18.4794 78.8596 21.9499C80.3266 25.4204 59.4131 19.7317 44.8684 32.415C30.3237 45.0984 24.3306 53.9356 24.3306 53.9356Z" fill="url(#paint11_radial_176_226)"/>
<g style="mix-blend-mode:screen">
<path d="M31.2719 43.7746C32.8104 44.4365 35.4761 38.8193 34.1522 38.4079C32.8283 37.9964 29.7333 43.1306 31.2719 43.7746Z" fill="white"/>
</g>
<path style="mix-blend-mode:screen" opacity="0.5" d="M31.0214 64.4007C30.5205 64.2934 16.9598 62.6118 16.7093 64.4007C16.4588 66.1896 34.9393 78.9803 35.0824 78.712C35.2256 78.4437 31.7907 64.6333 31.0214 64.4007Z" fill="url(#paint12_radial_176_226)"/>
<path style="mix-blend-mode:multiply" opacity="0.5" d="M33.9912 63.8104C33.9912 64.025 36.1917 79.0698 37.0862 78.6225C37.9807 78.1753 47.1047 57.5492 46.5143 57.2451C45.9239 56.941 34.2775 62.9159 33.9912 63.8104Z" fill="url(#paint13_linear_176_226)"/>
<path d="M20.1622 62.4508C19.9475 63.1485 30.449 63.4347 30.6637 63.2558C30.8784 63.0769 20.3948 61.7352 20.1622 62.4508Z" fill="white"/>
<path d="M53.3304 105.546C82.7417 113.578 109.72 87.5313 106.697 59.034H89.9336C93.6726 90.8766 54.5291 107.746 30.771 88.4973C33.2001 92.7031 36.4483 96.3789 40.3232 99.3072C44.1981 102.235 48.6211 104.357 53.3304 105.546Z" fill="url(#paint14_linear_176_226)"/>
<path d="M53.3304 105.546C82.7417 113.578 109.72 87.5313 106.697 59.034H89.9336C93.6726 90.8766 54.5291 107.746 30.771 88.4973C33.2001 92.7031 36.4483 96.3789 40.3232 99.3072C44.1981 102.235 48.6211 104.357 53.3304 105.546Z" fill="url(#paint15_linear_176_226)"/>
<path style="mix-blend-mode:screen" d="M53.3303 105.546C82.7417 113.578 109.72 87.5313 106.697 59.034C107.17 64.0473 106.715 69.105 105.355 73.9535C102.439 83.8819 95.2289 95.2952 84.477 100.966C70.1828 108.497 58.1964 105.689 53.3303 105.546Z" fill="url(#paint16_radial_176_226)"/>
<path d="M106.768 63.7209L89.7904 59.034C93.5294 90.8229 54.3859 107.674 30.6278 88.4258C32.7209 92.2003 46.4248 99.1592 60.6295 97.102C75.854 94.9553 86.3734 86.5295 90.0587 68.9803C90.0587 68.5689 98.646 64.0429 98.646 64.0429C98.646 64.0429 106.822 64.2218 106.768 63.7209Z" fill="url(#paint17_linear_176_226)"/>
<path style="mix-blend-mode:multiply" opacity="0.5" d="M30.771 88.4794C54.5291 107.728 93.6726 90.8587 89.9336 59.034H106.697C107.156 63.3838 106.927 67.7789 106.017 72.0572C106.464 62.5224 100.65 62.9696 97.4832 68.1216C95.1217 71.9141 90.3272 87.424 72.7054 95.2415C55.0836 103.059 39.4298 95.5098 37.0504 94.508C32.6852 92.7191 43.2225 102.415 56.336 106.19C55.3341 105.999 54.3323 105.766 53.3304 105.492C48.6225 104.311 44.1998 102.197 40.3245 99.2744C36.4493 96.352 33.2006 92.6811 30.771 88.4794Z" fill="url(#paint18_linear_176_226)"/>
<path d="M81.704 71.0555C83.1531 72.3435 97.8051 63.7388 98.3597 63.4526C98.9143 63.4526 115.946 64.508 116.661 62.6834C117.377 60.8587 93.7798 43.3453 93.5652 43.381C93.3505 43.4168 80.2728 69.7674 81.704 71.0555Z" fill="url(#paint19_linear_176_226)"/>
<path d="M81.7041 71.0555C82.2587 71.5563 83.189 66.4401 86.0693 59.7496C88.4028 54.6131 90.9942 49.5978 93.8336 44.7227C93.8336 44.7227 98.5745 47.1556 100.99 48.7835C96.9465 45.6887 93.6905 43.3095 93.6189 43.3274C93.5474 43.3453 80.2729 69.7674 81.7041 71.0555Z" fill="url(#paint20_linear_176_226)"/>
<path style="mix-blend-mode:screen" d="M81.7041 71.0554C83.1532 72.3435 97.8052 63.7388 98.3598 63.4526C98.9144 63.4526 115.946 64.508 116.661 62.6834C114.988 63.0917 113.265 63.2545 111.545 63.1664C106.07 63.0054 98.3598 62.1825 98.2167 62.2182C98.0736 62.254 89.7547 67.2987 84.7991 69.9463C83.7941 70.3865 82.7599 70.7571 81.7041 71.0554Z" fill="url(#paint21_radial_176_226)"/>
<path style="mix-blend-mode:multiply" opacity="0.5" d="M81.704 71.0555C83.1531 72.3435 97.8051 63.7388 98.3597 63.4526C98.9143 63.4526 93.7798 43.3453 93.5652 43.381C93.3505 43.4168 80.2728 69.7674 81.704 71.0555Z" fill="url(#paint22_linear_176_226)"/>
<path style="mix-blend-mode:multiply" opacity="0.5" d="M113.316 60.966C113.763 59.4812 94.9607 46.297 94.0841 46.7442C93.2075 47.1914 82.1514 68.551 83.9225 68.2111C85.6936 67.8712 96.5887 61.2165 98.0557 60.9302C99.5227 60.644 112.869 62.4329 113.316 60.966Z" fill="url(#paint23_linear_176_226)"/>
<path style="mix-blend-mode:screen" d="M98.5744 62.4329C98.5744 62.4329 96.9643 53.9535 96.0698 50.644C95.3719 48.1779 94.5357 45.7531 93.5652 43.381L98.5744 62.4329Z" fill="url(#paint24_radial_176_226)"/>
<path style="mix-blend-mode:screen" opacity="0.5" d="M106.178 71.6458C106.178 71.6458 103.083 89.9284 86.8564 99.9463C70.6301 109.964 53.1157 107.102 51.6308 103.631C50.1459 100.161 71.0953 105.832 85.622 93.1664C100.149 80.5009 106.178 71.6458 106.178 71.6458Z" fill="url(#paint25_radial_176_226)"/>
<g style="mix-blend-mode:screen">
<path d="M99.2184 81.7889C97.6799 81.1449 95.0322 86.7621 96.356 87.1556C97.6799 87.5492 100.757 82.4508 99.2184 81.7889Z" fill="white"/>
</g>
<path style="mix-blend-mode:screen" opacity="0.5" d="M99.4868 61.127C99.9698 61.2522 113.548 62.9159 113.799 61.127C114.049 59.3381 95.5689 46.5295 95.4258 46.8157C95.2826 47.102 98.6996 60.9302 99.4868 61.127Z" fill="url(#paint26_radial_176_226)"/>
<path style="mix-blend-mode:multiply" opacity="0.5" d="M96.4455 61.771C96.4455 61.5564 94.2271 46.5116 93.3505 46.9589C92.4739 47.4061 83.4036 67.9785 83.9224 68.2469C84.4412 68.5152 96.2129 62.6118 96.4455 61.771Z" fill="url(#paint27_linear_176_226)"/>
<path d="M110.328 63.1306C110.561 62.4329 100.059 62.1288 99.8268 62.3256C99.5942 62.5224 110.114 63.8283 110.328 63.1306Z" fill="white"/>
<path style="mix-blend-mode:screen" opacity="0.35" d="M107.56 107.557C132.167 82.9518 132.167 43.059 107.56 18.4538C82.954 -6.15128 43.0589 -6.15128 18.4524 18.4538C-6.15415 43.059 -6.15415 82.9518 18.4524 107.557C43.0589 132.162 82.954 132.162 107.56 107.557Z" fill="url(#paint28_radial_176_226)"/>
<path style="mix-blend-mode:screen" d="M61.5425 42.3716C61.7624 27.7214 49.5832 15.6595 34.3394 15.4307C19.0956 15.2019 6.55979 26.8928 6.33986 41.543C6.11994 56.1932 18.2992 68.255 33.543 68.4838C48.7868 68.7126 61.3226 57.0218 61.5425 42.3716Z" fill="url(#paint29_radial_176_226)"/>
<path style="mix-blend-mode:screen" d="M120.601 80.3551C120.821 65.7049 108.642 53.6431 93.3977 53.4143C78.154 53.1855 65.6181 64.8763 65.3982 79.5265C65.1783 94.1767 77.3575 106.239 92.6013 106.467C107.845 106.696 120.381 95.0053 120.601 80.3551Z" fill="url(#paint30_radial_176_226)"/>
</g>
<defs>
<linearGradient id="paint0_linear_176_226" x1="40.8968" y1="24.2039" x2="69.7873" y2="62.0588" gradientUnits="userSpaceOnUse">
<stop stop-color="#FCF800"/>
<stop offset="0.53" stop-color="#FC9700"/>
<stop offset="0.71" stop-color="#FE8500"/>
<stop offset="1" stop-color="#FC9700"/>
</linearGradient>
<linearGradient id="paint1_linear_176_226" x1="40.8968" y1="24.2039" x2="69.7873" y2="62.0588" gradientUnits="userSpaceOnUse">
<stop stop-color="#FCF800"/>
<stop offset="0.53" stop-color="#FC9700"/>
<stop offset="0.71" stop-color="#FE8500"/>
<stop offset="1" stop-color="#FC9700"/>
</linearGradient>
<radialGradient id="paint2_radial_176_226" cx="0" cy="0" r="1" gradientUnits="userSpaceOnUse" gradientTransform="translate(33.9197 29.6064) scale(46.8542 46.8515)">
<stop stop-color="#FFF261"/>
<stop offset="0.11" stop-color="#FAEE5F"/>
<stop offset="0.23" stop-color="#EDE15A"/>
<stop offset="0.36" stop-color="#D6CB52"/>
<stop offset="0.5" stop-color="#B7AD46"/>
<stop offset="0.64" stop-color="#8E8736"/>
<stop offset="0.78" stop-color="#5C5823"/>
<stop offset="0.92" stop-color="#23210D"/>
<stop offset="1"/>
</radialGradient>
<linearGradient id="paint3_linear_176_226" x1="23.7401" y1="47.3703" x2="99.8625" y2="47.3703" gradientUnits="userSpaceOnUse">
<stop stop-color="#F63F00"/>
<stop offset="0.55" stop-color="#F66A00"/>
<stop offset="1" stop-color="#FA9300"/>
</linearGradient>
<linearGradient id="paint4_linear_176_226" x1="68.4118" y1="60" x2="26.2478" y2="6.04418" gradientUnits="userSpaceOnUse">
<stop stop-color="#DE376D"/>
<stop offset="0.99" stop-color="white"/>
</linearGradient>
<linearGradient id="paint5_linear_176_226" x1="23.0782" y1="51.0912" x2="59.7867" y2="86.46" gradientUnits="userSpaceOnUse">
<stop stop-color="#FCF800"/>
<stop offset="0.53" stop-color="#FC9700"/>
<stop offset="0.71" stop-color="#FE8500"/>
<stop offset="1" stop-color="#FC9700"/>
</linearGradient>
<linearGradient id="paint6_linear_176_226" x1="38.1417" y1="64.6333" x2="51.308" y2="77.3174" gradientUnits="userSpaceOnUse">
<stop stop-color="#F63F00"/>
<stop offset="0.55" stop-color="#F66A00"/>
<stop offset="1" stop-color="#FA9300"/>
</linearGradient>
<radialGradient id="paint7_radial_176_226" cx="0" cy="0" r="1" gradientUnits="userSpaceOnUse" gradientTransform="translate(31.3256 58.873) scale(12.7556 12.7549)">
<stop stop-color="#FFF261"/>
<stop offset="0.11" stop-color="#FAEE5F"/>
<stop offset="0.23" stop-color="#EDE15A"/>
<stop offset="0.36" stop-color="#D6CB52"/>
<stop offset="0.5" stop-color="#B7AD46"/>
<stop offset="0.64" stop-color="#8E8736"/>
<stop offset="0.78" stop-color="#5C5823"/>
<stop offset="0.92" stop-color="#23210D"/>
<stop offset="1"/>
</radialGradient>
<linearGradient id="paint8_linear_176_226" x1="46.049" y1="76.2075" x2="36.0316" y2="51.4486" gradientUnits="userSpaceOnUse">
<stop stop-color="#DE376D"/>
<stop offset="0.99" stop-color="white"/>
</linearGradient>
<linearGradient id="paint9_linear_176_226" x1="37.8912" y1="91.1986" x2="33.0256" y2="66.44" gradientUnits="userSpaceOnUse">
<stop stop-color="#DE376D"/>
<stop offset="0.99" stop-color="white"/>
</linearGradient>
<radialGradient id="paint10_radial_176_226" cx="0" cy="0" r="1" gradientUnits="userSpaceOnUse" gradientTransform="translate(34.4384 72.6655) scale(6.95925 6.95885)">
<stop stop-color="#FFF261"/>
<stop offset="0.11" stop-color="#FAEE5F"/>
<stop offset="0.23" stop-color="#EDE15A"/>
<stop offset="0.36" stop-color="#D6CB52"/>
<stop offset="0.5" stop-color="#B7AD46"/>
<stop offset="0.64" stop-color="#8E8736"/>
<stop offset="0.78" stop-color="#5C5823"/>
<stop offset="0.92" stop-color="#23210D"/>
<stop offset="1"/>
</radialGradient>
<radialGradient id="paint11_radial_176_226" cx="0" cy="0" r="1" gradientUnits="userSpaceOnUse" gradientTransform="translate(37.8555 11.9678) scale(44.3317 44.3292)">
<stop stop-color="#FFF261"/>
<stop offset="0.11" stop-color="#FAEE5F"/>
<stop offset="0.23" stop-color="#EDE15A"/>
<stop offset="0.36" stop-color="#D6CB52"/>
<stop offset="0.5" stop-color="#B7AD46"/>
<stop offset="0.64" stop-color="#8E8736"/>
<stop offset="0.78" stop-color="#5C5823"/>
<stop offset="0.92" stop-color="#23210D"/>
<stop offset="1"/>
</radialGradient>
<radialGradient id="paint12_radial_176_226" cx="0" cy="0" r="1" gradientUnits="userSpaceOnUse" gradientTransform="translate(3.14861 63.6136) scale(38.5532 38.551)">
<stop stop-color="#FFF261"/>
<stop offset="0.11" stop-color="#FAEE5F"/>
<stop offset="0.23" stop-color="#EDE15A"/>
<stop offset="0.36" stop-color="#D6CB52"/>
<stop offset="0.5" stop-color="#B7AD46"/>
<stop offset="0.64" stop-color="#8E8736"/>
<stop offset="0.78" stop-color="#5C5823"/>
<stop offset="0.92" stop-color="#23210D"/>
<stop offset="1"/>
</radialGradient>
<linearGradient id="paint13_linear_176_226" x1="33.866" y1="46.9231" x2="43.8119" y2="73.3814" gradientUnits="userSpaceOnUse">
<stop stop-color="#DE376D"/>
<stop offset="0.99" stop-color="white"/>
</linearGradient>
<linearGradient id="paint14_linear_176_226" x1="89.6115" y1="101.377" x2="60.7211" y2="63.5226" gradientUnits="userSpaceOnUse">
<stop stop-color="#FCF800"/>
<stop offset="0.53" stop-color="#FC9700"/>
<stop offset="0.71" stop-color="#FE8500"/>
<stop offset="1" stop-color="#FC9700"/>
</linearGradient>
<linearGradient id="paint15_linear_176_226" x1="89.6115" y1="101.377" x2="60.7211" y2="63.5226" gradientUnits="userSpaceOnUse">
<stop stop-color="#FCF800"/>
<stop offset="0.53" stop-color="#FC9700"/>
<stop offset="0.71" stop-color="#FE8500"/>
<stop offset="1" stop-color="#FC9700"/>
</linearGradient>
<radialGradient id="paint16_radial_176_226" cx="0" cy="0" r="1" gradientUnits="userSpaceOnUse" gradientTransform="translate(96.5886 95.9749) rotate(180) scale(46.8542 46.8515)">
<stop stop-color="#FFF261"/>
<stop offset="0.11" stop-color="#FAEE5F"/>
<stop offset="0.23" stop-color="#EDE15A"/>
<stop offset="0.36" stop-color="#D6CB52"/>
<stop offset="0.5" stop-color="#B7AD46"/>
<stop offset="0.64" stop-color="#8E8736"/>
<stop offset="0.78" stop-color="#5C5823"/>
<stop offset="0.92" stop-color="#23210D"/>
<stop offset="1"/>
</radialGradient>
<linearGradient id="paint17_linear_176_226" x1="106.768" y1="78.2111" x2="30.6278" y2="78.2111" gradientUnits="userSpaceOnUse">
<stop stop-color="#F63F00"/>
<stop offset="0.55" stop-color="#F66A00"/>
<stop offset="1" stop-color="#FA9300"/>
</linearGradient>
<linearGradient id="paint18_linear_176_226" x1="62.0966" y1="65.5814" x2="104.243" y2="119.537" gradientUnits="userSpaceOnUse">
<stop stop-color="#DE376D"/>
<stop offset="0.99" stop-color="white"/>
</linearGradient>
<linearGradient id="paint19_linear_176_226" x1="107.412" y1="74.4902" x2="70.7215" y2="39.1213" gradientUnits="userSpaceOnUse">
<stop stop-color="#FCF800"/>
<stop offset="0.53" stop-color="#FC9700"/>
<stop offset="0.71" stop-color="#FE8500"/>
<stop offset="1" stop-color="#FC9700"/>
</linearGradient>
<linearGradient id="paint20_linear_176_226" x1="92.3487" y1="60.966" x2="79.1823" y2="48.264" gradientUnits="userSpaceOnUse">
<stop stop-color="#F63F00"/>
<stop offset="0.55" stop-color="#F66A00"/>
<stop offset="1" stop-color="#FA9300"/>
</linearGradient>
<radialGradient id="paint21_radial_176_226" cx="0" cy="0" r="1" gradientUnits="userSpaceOnUse" gradientTransform="translate(99.1827 66.7084) rotate(180) scale(12.7556 12.7549)">
<stop stop-color="#FFF261"/>
<stop offset="0.11" stop-color="#FAEE5F"/>
<stop offset="0.23" stop-color="#EDE15A"/>
<stop offset="0.36" stop-color="#D6CB52"/>
<stop offset="0.5" stop-color="#B7AD46"/>
<stop offset="0.64" stop-color="#8E8736"/>
<stop offset="0.78" stop-color="#5C5823"/>
<stop offset="0.92" stop-color="#23210D"/>
<stop offset="1"/>
</radialGradient>
<linearGradient id="paint22_linear_176_226" x1="84.4412" y1="49.3739" x2="94.4587" y2="74.1328" gradientUnits="userSpaceOnUse">
<stop stop-color="#DE376D"/>
<stop offset="0.99" stop-color="white"/>
</linearGradient>
<linearGradient id="paint23_linear_176_226" x1="92.6171" y1="34.3828" x2="97.4827" y2="59.1414" gradientUnits="userSpaceOnUse">
<stop stop-color="#DE376D"/>
<stop offset="0.99" stop-color="white"/>
</linearGradient>
<radialGradient id="paint24_radial_176_226" cx="0" cy="0" r="1" gradientUnits="userSpaceOnUse" gradientTransform="translate(96.0698 52.9159) rotate(180) scale(6.95925 6.95886)">
<stop stop-color="#FFF261"/>
<stop offset="0.11" stop-color="#FAEE5F"/>
<stop offset="0.23" stop-color="#EDE15A"/>
<stop offset="0.36" stop-color="#D6CB52"/>
<stop offset="0.5" stop-color="#B7AD46"/>
<stop offset="0.64" stop-color="#8E8736"/>
<stop offset="0.78" stop-color="#5C5823"/>
<stop offset="0.92" stop-color="#23210D"/>
<stop offset="1"/>
</radialGradient>
<radialGradient id="paint25_radial_176_226" cx="0" cy="0" r="1" gradientUnits="userSpaceOnUse" gradientTransform="translate(92.6528 113.614) rotate(180) scale(44.3317 44.3292)">
<stop stop-color="#FFF261"/>
<stop offset="0.11" stop-color="#FAEE5F"/>
<stop offset="0.23" stop-color="#EDE15A"/>
<stop offset="0.36" stop-color="#D6CB52"/>
<stop offset="0.5" stop-color="#B7AD46"/>
<stop offset="0.64" stop-color="#8E8736"/>
<stop offset="0.78" stop-color="#5C5823"/>
<stop offset="0.92" stop-color="#23210D"/>
<stop offset="1"/>
</radialGradient>
<radialGradient id="paint26_radial_176_226" cx="0" cy="0" r="1" gradientUnits="userSpaceOnUse" gradientTransform="translate(127.342 61.9678) rotate(180) scale(38.5532 38.551)">
<stop stop-color="#FFF261"/>
<stop offset="0.11" stop-color="#FAEE5F"/>
<stop offset="0.23" stop-color="#EDE15A"/>
<stop offset="0.36" stop-color="#D6CB52"/>
<stop offset="0.5" stop-color="#B7AD46"/>
<stop offset="0.64" stop-color="#8E8736"/>
<stop offset="0.78" stop-color="#5C5823"/>
<stop offset="0.92" stop-color="#23210D"/>
<stop offset="1"/>
</radialGradient>
<linearGradient id="paint27_linear_176_226" x1="96.6423" y1="78.6583" x2="86.6964" y2="52.2" gradientUnits="userSpaceOnUse">
<stop stop-color="#DE376D"/>
<stop offset="0.99" stop-color="white"/>
</linearGradient>
<radialGradient id="paint28_radial_176_226" cx="0" cy="0" r="1" gradientUnits="userSpaceOnUse" gradientTransform="translate(63.0047 63.0036) scale(63.009 63.0054)">
<stop offset="0.37" stop-opacity="0"/>
<stop offset="0.63" stop-color="#B41E87" stop-opacity="0.79"/>
<stop offset="0.65" stop-color="#A21B7A" stop-opacity="0.94"/>
<stop offset="0.72" stop-color="#69124F" stop-opacity="0.45"/>
<stop offset="0.78" stop-color="#3C0A2D" stop-opacity="0"/>
<stop offset="0.83" stop-color="#1B0514" stop-opacity="0"/>
<stop offset="0.87" stop-color="#070105" stop-opacity="0"/>
<stop offset="0.9" stop-opacity="0"/>
</radialGradient>
<radialGradient id="paint29_radial_176_226" cx="0" cy="0" r="1" gradientUnits="userSpaceOnUse" gradientTransform="translate(29.5544 35.7349) rotate(-8.92191) scale(27.9501 27.0127)">
<stop stop-color="#FF7300"/>
<stop offset="0.07" stop-color="#D15E00" stop-opacity="0.68"/>
<stop offset="0.21" stop-color="#A04800" stop-opacity="0.46"/>
<stop offset="0.33" stop-color="#753500" stop-opacity="0.28"/>
<stop offset="0.45" stop-color="#512500" stop-opacity="0.08"/>
<stop offset="0.55" stop-opacity="0"/>
</radialGradient>
<radialGradient id="paint30_radial_176_226" cx="0" cy="0" r="1" gradientUnits="userSpaceOnUse" gradientTransform="translate(88.6128 73.7185) rotate(-8.92191) scale(27.9501 27.0127)">
<stop stop-color="#FF7300"/>
<stop offset="0.07" stop-color="#D15E00" stop-opacity="0.68"/>
<stop offset="0.21" stop-color="#A04800" stop-opacity="0.46"/>
<stop offset="0.33" stop-color="#753500" stop-opacity="0.28"/>
<stop offset="0.45" stop-color="#512500" stop-opacity="0.08"/>
<stop offset="0.55" stop-opacity="0"/>
</radialGradient>
<clipPath id="clip0_176_226">
<rect width="126" height="140" fill="white"/>
</clipPath>
</defs>
</svg>
