<svg width="123" height="145" viewBox="0 0 123 145" fill="none" xmlns="http://www.w3.org/2000/svg">
<path fill-rule="evenodd" clip-rule="evenodd" d="M15.9952 47.6544C16.4558 47.4674 36.9314 58.1912 48.0695 51.5823C55.0203 59.5005 60.3799 66.2548 60.3799 66.2548L59.5843 85.8528L28.9757 78.184L15.9952 47.6544Z" fill="url(#paint0_linear_175_99)"/>
<path fill-rule="evenodd" clip-rule="evenodd" d="M60.359 66.2341L59.5843 85.8528L28.9757 78.2048L15.9952 47.6544C20.2658 49.472 24.6423 51.0335 29.1013 52.3305C35.0053 53.8684 41.8305 54.5958 47.0017 52.1227C47.3576 51.9564 47.7135 51.7694 48.0276 51.5823C54.9993 59.5005 60.359 66.2341 60.359 66.2341Z" fill="url(#paint1_linear_175_99)"/>
<path style="mix-blend-mode:multiply" opacity="0.5" fill-rule="evenodd" clip-rule="evenodd" d="M60.359 66.2341L59.5843 85.8528L28.9757 78.2048L15.9952 47.6544C16.0999 47.6544 17.3352 48.174 19.2822 48.9637L20.1197 49.317C21.3758 49.8158 22.8623 50.3977 24.5372 50.9589C26.1126 52.6578 28.1478 53.87 30.3993 54.4503C34.4191 55.8636 40.8674 55.1985 43.631 53.2657C44.7143 53.0491 45.7682 52.7074 46.7714 52.2474L47.0436 52.1227C47.3995 51.9564 47.7554 51.7694 48.0695 51.5823C54.9993 59.5005 60.359 66.2341 60.359 66.2341Z" fill="url(#paint2_linear_175_99)"/>
<path fill-rule="evenodd" clip-rule="evenodd" d="M16.1837 47.6544C16.1837 47.6544 27.552 54.9491 35.1518 56.1337C42.2911 57.256 43.8822 54.0555 43.8822 54.0555C43.8822 54.0555 43.3588 58.0873 41.2861 59.1056C39.2134 60.124 34.6284 59.5836 28.7244 58.0873C22.8204 56.5909 16.1837 47.6544 16.1837 47.6544Z" fill="url(#paint3_linear_175_99)"/>
<path fill-rule="evenodd" clip-rule="evenodd" d="M103.802 47.6544C103.341 47.4674 82.9701 58.1912 71.7273 51.5823C64.7975 59.5005 59.4169 66.2548 59.4169 66.2548L60.2124 85.8528L90.8211 78.184L103.802 47.6544Z" fill="url(#paint4_linear_175_99)"/>
<path fill-rule="evenodd" clip-rule="evenodd" d="M59.4378 66.2341L60.2124 85.8528L90.8211 78.2048L103.802 47.6544C99.531 49.472 95.1545 51.0335 90.6955 52.3305C84.7915 53.8684 77.9663 54.5958 72.7951 52.1227C72.4392 51.9564 72.0833 51.7694 71.7692 51.5823C64.9021 59.5005 59.4378 66.2341 59.4378 66.2341Z" fill="url(#paint5_linear_175_99)"/>
<path style="mix-blend-mode:multiply" opacity="0.5" fill-rule="evenodd" clip-rule="evenodd" d="M59.4378 66.2341L60.2124 85.8528L90.8211 78.2048L103.802 47.6544C103.802 47.6544 102.462 48.174 100.515 48.9637L99.6771 49.317C98.421 49.8158 96.9345 50.3977 95.2596 50.9589C93.6842 52.6578 91.649 53.87 89.3975 54.4503C85.3777 55.8636 78.9294 55.1985 76.1658 53.2657C75.0825 53.0491 74.0286 52.7074 73.0254 52.2474L72.7532 52.1227C72.3973 51.9564 72.0414 51.7694 71.7273 51.5823C64.9021 59.5005 59.4378 66.2341 59.4378 66.2341Z" fill="url(#paint6_linear_175_99)"/>
<path fill-rule="evenodd" clip-rule="evenodd" d="M103.613 47.6544C103.613 47.6544 92.2448 54.9491 84.6449 56.1129C77.5057 57.2352 75.9146 54.0347 75.9146 54.0347C75.9146 54.0347 76.438 58.0665 78.5106 59.0848C80.5833 60.1032 85.1683 59.5628 91.0723 58.0665C96.9763 56.5702 103.613 47.6544 103.613 47.6544Z" fill="url(#paint7_linear_175_99)"/>
<path style="mix-blend-mode:screen" fill-rule="evenodd" clip-rule="evenodd" d="M103.613 47.6544C103.613 47.6544 92.2448 54.9491 84.6449 56.1129C77.5057 57.2352 75.9146 54.0347 75.9146 54.0347C75.9146 54.0347 76.438 58.0665 78.5106 59.0848C80.5833 60.1032 85.1683 59.5628 91.0723 58.0665C96.9763 56.5702 103.613 47.6544 103.613 47.6544Z" fill="url(#paint8_radial_175_99)"/>
<path fill-rule="evenodd" clip-rule="evenodd" d="M59.9821 94.249H31.4043L32.0114 98.26C32.7442 100.338 44.1335 101.751 59.9612 101.751C75.7889 101.751 87.1782 100.442 87.8901 98.26L88.5181 94.249H59.9821Z" fill="url(#paint9_radial_175_99)"/>
<path style="mix-blend-mode:multiply" opacity="0.5" fill-rule="evenodd" clip-rule="evenodd" d="M59.9821 94.249H34.9215C41.4245 95.166 47.585 97.7123 52.822 101.648C55.0831 101.648 57.4489 101.751 59.9403 101.751C75.768 101.751 87.1573 100.442 87.8691 98.26L88.4972 94.249H59.9821Z" fill="url(#paint10_linear_175_99)"/>
<path fill-rule="evenodd" clip-rule="evenodd" d="M16.6233 48.0077C16.6233 48.0077 30.9227 59.9369 41.7467 59.0225C48.0276 58.5029 50.8121 41.6067 50.8121 41.6067C50.8121 41.6067 48.7185 56.009 44.8871 60.8722C41.0558 65.7353 20.2662 63.8648 17.8585 59.5005C15.4509 55.1362 16.6233 48.0077 16.6233 48.0077Z" fill="url(#paint11_linear_175_99)"/>
<path fill-rule="evenodd" clip-rule="evenodd" d="M107.633 47.509C106.733 46.2828 105.162 46.3659 102.838 48.4026C97.751 52.8709 84.2472 59.3342 78.9084 56.9027C72.3345 53.91 65.2162 22.4867 64.2531 18.1016C63.9915 16.8312 63.4771 15.6255 62.7401 14.5549C62.0031 13.4843 61.0584 12.5705 59.9612 11.8669C57.7926 13.3164 56.2879 15.557 55.774 18.1016C54.79 22.4867 47.6926 53.91 41.1186 56.9027C35.7799 59.3342 22.2761 52.8709 17.1677 48.4026C14.8647 46.3244 13.2945 46.3244 12.3942 47.509C11.494 48.6936 12.143 50.3146 12.6036 51.4369L31.4461 94.249C31.6555 94.8101 32.7023 95.3089 34.3772 95.7453C39.2344 97.0131 49.2628 97.6365 59.5006 97.6573H60.7568C70.8899 97.6573 80.9183 97.0131 85.8802 95.7453C87.5551 95.3089 88.6019 94.8101 88.7903 94.249L107.633 51.4369C107.904 50.8172 108.044 50.1487 108.044 49.4729C108.044 48.7972 107.904 48.1287 107.633 47.509Z" fill="url(#paint12_radial_175_99)"/>
<path style="mix-blend-mode:multiply" opacity="0.5" fill-rule="evenodd" clip-rule="evenodd" d="M107.633 47.509C106.733 46.2828 105.162 46.3659 102.838 48.4026C97.751 52.8709 84.2472 59.3342 78.9084 56.9027C72.3345 53.91 65.2162 22.4867 64.2531 18.1016C63.9915 16.8312 63.4771 15.6255 62.7401 14.5549C62.0031 13.4843 61.0584 12.5705 59.9612 11.8669C57.7926 13.3164 56.2879 15.557 55.774 18.1016C54.79 22.4867 47.6926 53.91 41.1186 56.9027C35.7799 59.3342 22.2761 52.8709 17.1677 48.4026C14.8647 46.3244 13.2945 46.3244 12.3942 47.509C11.494 48.6936 12.143 50.3146 12.6036 51.4369L31.4461 94.249C31.6555 94.8101 32.7023 95.3089 34.3772 95.7453C39.2344 97.0131 49.2628 97.6365 59.5006 97.6573H60.7568C70.8899 97.6573 80.9183 97.0131 85.8802 95.7453C87.5551 95.3089 88.6019 94.8101 88.7903 94.249L107.633 51.4369C107.904 50.8172 108.044 50.1487 108.044 49.4729C108.044 48.7972 107.904 48.1287 107.633 47.509Z" fill="url(#paint13_linear_175_99)"/>
<path style="mix-blend-mode:screen" opacity="0.5" d="M61.5 121C95.4655 121 123 95.2564 123 63.5C123 31.7436 95.4655 6 61.5 6C27.5345 6 0 31.7436 0 63.5C0 95.2564 27.5345 121 61.5 121Z" fill="url(#paint14_radial_175_99)"/>
<path style="mix-blend-mode:screen" d="M44.4266 97.5326V101.232C41.878 101.037 39.3413 100.711 36.8267 100.255V96.3064C36.8267 96.1194 36.4918 95.4128 36.094 94.2282C34.0003 88.3883 24.2022 60.1448 21.1037 51.1667C25.3641 53.8794 30.0577 55.8541 34.9843 57.0066C34.9843 57.3391 41.663 88.8871 43.5054 94.2282C43.966 95.579 44.3009 96.6182 44.4684 97.1169C44.4736 97.2567 44.4595 97.3966 44.4266 97.5326Z" fill="url(#paint15_radial_175_99)"/>
<path style="mix-blend-mode:multiply" opacity="0.5" fill-rule="evenodd" clip-rule="evenodd" d="M76.2077 79.8882L69.9268 92.1291L60.5055 95.2881L59.9821 48.943V11.9708L60.359 12.1786C60.4636 12.1786 60.6311 12.3864 60.7986 12.5527C61.0232 12.7222 61.2333 12.9099 61.4267 13.1138C62.8345 14.4704 63.8162 16.2029 64.2531 18.1016C64.2476 18.1569 64.2476 18.2126 64.2531 18.2679C65.3627 23.2973 72.3554 53.9516 78.9084 56.9027C79.7841 57.2616 80.7247 57.4384 81.672 57.4222C78.385 67.2108 75.4749 80.6572 76.2077 79.8882Z" fill="url(#paint16_linear_175_99)"/>
<path d="M87.0526 95.1426C86.4765 95.3204 85.8889 95.4592 85.2939 95.5583C84.1006 95.7661 82.9072 95.87 81.7139 95.9739C79.3062 96.1817 76.8776 96.3064 74.4699 96.3896C69.6267 96.5558 64.7904 96.639 59.9612 96.639C55.1319 96.639 50.2956 96.5697 45.4524 96.4311C43.0447 96.4311 40.6371 96.2233 38.2294 95.9947C37.0298 95.9269 35.8347 95.7951 34.6493 95.5998C34.0538 95.5034 33.4661 95.3645 32.8907 95.1842C32.3065 95.05 31.7793 94.7375 31.3833 94.2905C32.1801 95.2423 33.2808 95.8949 34.5028 96.1402C35.6752 96.4935 36.8686 96.7844 38.0829 97.0546C40.4905 97.5118 42.9191 97.8443 45.3477 98.073C50.2049 98.5717 55.083 98.738 60.003 98.7588C64.923 98.7796 69.7593 98.551 74.6584 98.0522C77.0963 97.8296 79.5211 97.4828 81.9232 97.013C83.1244 96.7764 84.3123 96.4781 85.4824 96.1194C86.079 95.954 86.6603 95.7385 87.2201 95.4751C87.7435 95.205 88.3925 94.8932 88.6019 94.2905C88.2106 94.7564 87.658 95.0603 87.0526 95.1426Z" fill="url(#paint17_radial_175_99)"/>
<path d="M87.0526 95.1426C86.4765 95.3204 85.8889 95.4592 85.2939 95.5583C84.1006 95.7661 82.9072 95.87 81.7139 95.9739C79.3062 96.1817 76.8776 96.3064 74.4699 96.3896C69.6267 96.5558 64.7904 96.639 59.9612 96.639C55.1319 96.639 50.2956 96.5697 45.4524 96.4311C43.0447 96.4311 40.6371 96.2233 38.2294 95.9947C37.0298 95.9269 35.8347 95.7951 34.6493 95.5998C34.0538 95.5034 33.4661 95.3645 32.8907 95.1842C32.3065 95.05 31.7793 94.7375 31.3833 94.2905C32.1801 95.2423 33.2808 95.8949 34.5028 96.1402C35.6752 96.4935 36.8686 96.7844 38.0829 97.0546C40.4905 97.5118 42.9191 97.8443 45.3477 98.073C50.2049 98.5717 55.083 98.738 60.003 98.7588C64.923 98.7796 69.7593 98.551 74.6584 98.0522C77.0963 97.8296 79.5211 97.4828 81.9232 97.013C83.1244 96.7764 84.3123 96.4781 85.4824 96.1194C86.079 95.954 86.6603 95.7385 87.2201 95.4751C87.7435 95.205 88.3925 94.8932 88.6019 94.2905C88.2106 94.7564 87.658 95.0603 87.0526 95.1426Z" fill="url(#paint18_radial_175_99)"/>
<path style="mix-blend-mode:multiply" opacity="0.5" d="M59.7099 98.0314C46.0805 98.0314 38.376 96.9923 34.5865 95.9531C31.8439 95.1842 31.3833 94.3113 31.3624 94.2697C32.0114 95.3712 35.1518 99.3823 59.7309 99.3823C84.3099 99.3823 88.2878 95.0803 88.4972 94.3113C87.928 94.9282 87.2063 95.3867 86.4036 95.6414C83.3678 96.7429 76.103 98.0314 59.7099 98.0314Z" fill="url(#paint19_linear_175_99)"/>
<path style="mix-blend-mode:screen" fill-rule="evenodd" clip-rule="evenodd" d="M59.9612 12.0123C57.8676 15.2336 56.4439 21.1567 53.6803 31.3193C50.5399 42.9784 47.8601 57.443 42.6888 60.0201C32.0114 64.2805 13.5038 46.8855 13.3782 46.7608C13.641 46.7103 13.911 46.7103 14.1738 46.7608C15.2315 47.0437 16.1932 47.6036 16.9583 48.3818C22.0667 52.8501 35.5705 59.2927 40.9302 56.8819C44.5522 55.2401 48.3416 44.9111 51.1471 35.268C53.471 27.433 55.1249 20.0344 55.5437 18.0808C55.9534 16.347 56.8122 14.7494 58.0351 13.4463C58.5402 12.8665 59.1336 12.3687 59.7937 11.9708L59.9612 12.0123Z" fill="url(#paint20_radial_175_99)"/>
<path style="mix-blend-mode:screen" opacity="0.65" fill-rule="evenodd" clip-rule="evenodd" d="M59.5634 12.1994C58.2966 15.0582 57.2809 18.0204 56.5276 21.0527C54.5387 29.5944 50.7492 41.6898 46.6876 48.6728C48.4683 44.3169 49.9923 39.8619 51.2517 35.3304C53.5756 27.4953 55.2296 20.0967 55.6483 18.1432C56.058 16.4093 56.9168 14.8118 58.1397 13.5087C58.5666 13.0238 59.0438 12.5849 59.5634 12.1994Z" fill="url(#paint21_radial_175_99)"/>
<path style="mix-blend-mode:multiply" opacity="0.5" fill-rule="evenodd" clip-rule="evenodd" d="M104.681 53.6606C102.231 52.6215 82.3629 62.3477 79.5574 65.7353C76.752 69.1228 73.465 94.0411 75.0352 95.2257C76.6054 96.4103 86.6548 95.2257 87.7226 93.6463C88.7903 92.0668 105.183 53.91 104.681 53.6606Z" fill="url(#paint22_linear_175_99)"/>
<path style="mix-blend-mode:screen" opacity="0.65" d="M38.7529 96.7013C45.6772 97.768 52.6842 98.2132 59.689 98.0314C66.4183 98.2042 73.1511 97.8707 79.8296 97.0338C79.8296 97.0338 65.1743 97.5742 59.4797 97.3871C53.785 97.2001 38.7529 96.7013 38.7529 96.7013Z" fill="url(#paint23_radial_175_99)"/>
<path fill-rule="evenodd" clip-rule="evenodd" d="M73.8628 78.5789L59.9612 47.2803L46.0386 78.5789L50.9586 89.7807L59.9612 93.7502L68.9428 89.7807L73.8628 78.5789Z" fill="url(#paint24_linear_175_99)"/>
<path fill-rule="evenodd" clip-rule="evenodd" d="M75.0562 78.8699L59.9612 45.1605L44.8662 78.8699L50.2049 90.2379L59.9612 94.2905L69.6965 90.2379L75.0562 78.8699Z" fill="url(#paint25_linear_175_99)"/>
<path style="mix-blend-mode:multiply" opacity="0.8" fill-rule="evenodd" clip-rule="evenodd" d="M75.0562 78.8699L59.9612 45.1605L44.8662 78.8699L44.95 78.9945H74.9515L75.0562 78.8699Z" fill="url(#paint26_linear_175_99)"/>
<g filter="url(#filter0_d_175_99)">
<path fill-rule="evenodd" clip-rule="evenodd" d="M73.8628 78.5789L59.9612 47.2803L46.0386 78.5789L50.9586 89.7807L59.9612 93.7502L68.9428 89.7807L73.8628 78.5789Z" fill="url(#paint27_linear_175_99)"/>
</g>
<path style="mix-blend-mode:multiply" opacity="0.5" fill-rule="evenodd" clip-rule="evenodd" d="M73.8628 78.5789L59.9612 47.2803V56.3L68.21 78.5166L64.7346 88.3052L59.6681 89.8431L55.0202 88.1805L50.9586 89.7807L59.9612 93.7502L68.9428 89.7807L73.8628 78.5789Z" fill="url(#paint28_linear_175_99)"/>
<path style="mix-blend-mode:multiply" opacity="0.8" d="M73.8419 78.5789L68.1891 78.5166L64.7346 88.3052L68.9218 89.7807L73.8419 78.5789Z" fill="url(#paint29_linear_175_99)"/>
<path style="mix-blend-mode:color-dodge" fill-rule="evenodd" clip-rule="evenodd" d="M59.9612 56.3L51.5449 78.7036L55.0203 88.1805L59.6681 89.8431L64.7346 88.3052L68.2101 78.5166L59.9612 56.3Z" fill="url(#paint30_linear_175_99)"/>
<path opacity="0.75" fill-rule="evenodd" clip-rule="evenodd" d="M46.0386 78.5789L51.5449 78.7036L59.9612 56.3V47.2803L46.0386 78.5789Z" fill="white"/>
<path fill-rule="evenodd" clip-rule="evenodd" d="M48.4463 78.6828L51.5448 78.7036L54.7271 70.4321L48.4463 78.6828Z" fill="white"/>
<path fill-rule="evenodd" clip-rule="evenodd" d="M59.9612 47.2803L55.2296 59.0641L59.8984 56.5078L59.9612 47.2803Z" fill="white"/>
<path style="mix-blend-mode:multiply" opacity="0.8" d="M59.6681 89.8431L59.9612 93.7502C59.9612 93.7502 51.0005 89.8223 50.9586 89.7807C50.9168 89.7391 55.0202 88.1805 55.0202 88.1805L59.6681 89.8431Z" fill="url(#paint31_linear_175_99)"/>
<path style="mix-blend-mode:screen" fill-rule="evenodd" clip-rule="evenodd" d="M59.9402 11.9708C56.2136 49.3794 46.5202 55.3648 41.5374 56.5909C44.9918 54.3049 48.5719 44.4955 51.2517 35.2888C53.5756 27.4538 55.2296 20.0552 55.6483 18.1016C56.058 16.3678 56.9169 14.7702 58.1397 13.4671C58.6449 12.8873 59.2383 12.3894 59.8984 11.9915L59.9402 11.9708Z" fill="url(#paint32_radial_175_99)"/>
<path style="mix-blend-mode:screen" opacity="0.65" fill-rule="evenodd" clip-rule="evenodd" d="M51.2517 35.3304C49.9537 43.2277 47.0645 56.1129 41.7049 59.0641C34.9843 62.8465 19.0729 50.751 14.2785 46.8231C15.3362 47.1061 16.2979 47.6659 17.063 48.4442C22.1714 52.9124 35.6752 59.355 41.0349 56.9442C44.6569 55.2609 48.4463 44.9319 51.2517 35.3304Z" fill="url(#paint33_radial_175_99)"/>
<path style="mix-blend-mode:multiply" opacity="0.5" fill-rule="evenodd" clip-rule="evenodd" d="M61.2801 14.9634C60.7567 14.8388 60.7567 44.7033 61.9501 47.4258C63.1435 50.1483 68.231 63.2621 69.9268 62.7426C71.6226 62.223 75.0143 57.2975 74.6374 56.3831C74.2606 55.4687 61.8036 15.0881 61.2801 14.9634Z" fill="url(#paint34_linear_175_99)"/>
<path style="mix-blend-mode:screen" fill-rule="evenodd" clip-rule="evenodd" d="M45.599 55.8636C45.599 55.8636 50.3096 62.223 51.4821 61.8282C52.6545 61.4333 58.1398 48.5897 58.5376 47.2804C58.9353 45.9711 60.6312 14.0282 59.3331 14.5478C58.0351 15.0674 53.8269 34.4159 52.6545 36.8891C51.4821 39.3622 44.6778 54.5543 45.599 55.8636Z" fill="url(#paint35_radial_175_99)"/>
<path style="mix-blend-mode:screen" fill-rule="evenodd" clip-rule="evenodd" d="M67.5191 13.6334C71.8948 32.1091 72.0623 62.8465 67.896 82.2159C63.7297 101.585 56.8417 102.437 52.466 83.9616C48.0904 65.4859 47.9019 34.7485 52.0682 15.3791C56.2345 -3.99025 63.1435 -4.84234 67.5191 13.6334Z" fill="url(#paint36_radial_175_99)"/>
<defs>
<filter id="filter0_d_175_99" x="26.0386" y="31.2803" width="67.8242" height="86.4698" filterUnits="userSpaceOnUse" color-interpolation-filters="sRGB">
<feFlood flood-opacity="0" result="BackgroundImageFix"/>
<feColorMatrix in="SourceAlpha" type="matrix" values="0 0 0 0 0 0 0 0 0 0 0 0 0 0 0 0 0 0 127 0" result="hardAlpha"/>
<feOffset dy="4"/>
<feGaussianBlur stdDeviation="10"/>
<feComposite in2="hardAlpha" operator="out"/>
<feColorMatrix type="matrix" values="0 0 0 0 0.619608 0 0 0 0 0.0196078 0 0 0 0 0.490196 0 0 0 1 0"/>
<feBlend mode="normal" in2="BackgroundImageFix" result="effect1_dropShadow_175_99"/>
<feBlend mode="normal" in="SourceGraphic" in2="effect1_dropShadow_175_99" result="shape"/>
</filter>
<linearGradient id="paint0_linear_175_99" x1="38.7319" y1="63.0543" x2="36.7099" y2="40.4194" gradientUnits="userSpaceOnUse">
<stop stop-color="#F63F00"/>
<stop offset="0.55" stop-color="#F66A00"/>
<stop offset="1" stop-color="#FA9300"/>
</linearGradient>
<linearGradient id="paint1_linear_175_99" x1="38.7319" y1="63.0543" x2="36.7099" y2="40.4194" gradientUnits="userSpaceOnUse">
<stop stop-color="#F63F00"/>
<stop offset="0.55" stop-color="#F66A00"/>
<stop offset="1" stop-color="#FA9300"/>
</linearGradient>
<linearGradient id="paint2_linear_175_99" x1="39.7159" y1="58.7731" x2="36.3299" y2="73.0412" gradientUnits="userSpaceOnUse">
<stop stop-color="#DE376D"/>
<stop offset="0.99" stop-color="white"/>
</linearGradient>
<linearGradient id="paint3_linear_175_99" x1="27.9288" y1="60.1655" x2="29.085" y2="55.0286" gradientUnits="userSpaceOnUse">
<stop stop-color="#F63F00"/>
<stop offset="0.55" stop-color="#F66A00"/>
<stop offset="1" stop-color="#FA9300"/>
</linearGradient>
<linearGradient id="paint4_linear_175_99" x1="81.0649" y1="63.0543" x2="83.0869" y2="40.4194" gradientUnits="userSpaceOnUse">
<stop stop-color="#F63F00"/>
<stop offset="0.55" stop-color="#F66A00"/>
<stop offset="1" stop-color="#FA9300"/>
</linearGradient>
<linearGradient id="paint5_linear_175_99" x1="81.0649" y1="63.0543" x2="83.0869" y2="40.4194" gradientUnits="userSpaceOnUse">
<stop stop-color="#F63F00"/>
<stop offset="0.55" stop-color="#F66A00"/>
<stop offset="1" stop-color="#FA9300"/>
</linearGradient>
<linearGradient id="paint6_linear_175_99" x1="80.0809" y1="58.7731" x2="83.4669" y2="73.0412" gradientUnits="userSpaceOnUse">
<stop stop-color="#DE376D"/>
<stop offset="0.99" stop-color="white"/>
</linearGradient>
<linearGradient id="paint7_linear_175_99" x1="90.0255" y1="52.663" x2="91.6146" y2="63.3487" gradientUnits="userSpaceOnUse">
<stop stop-color="#F63F00"/>
<stop offset="0.55" stop-color="#F66A00"/>
<stop offset="1" stop-color="#FA9300"/>
</linearGradient>
<radialGradient id="paint8_radial_175_99" cx="0" cy="0" r="1" gradientUnits="userSpaceOnUse" gradientTransform="translate(95.9505 47.3011) scale(11.7452 11.659)">
<stop stop-color="#FFF261"/>
<stop offset="0.11" stop-color="#FAEE5F"/>
<stop offset="0.23" stop-color="#EDE15A"/>
<stop offset="0.36" stop-color="#D6CB52"/>
<stop offset="0.5" stop-color="#B7AD46"/>
<stop offset="0.64" stop-color="#8E8736"/>
<stop offset="0.78" stop-color="#5C5823"/>
<stop offset="0.92" stop-color="#23210D"/>
<stop offset="1"/>
</radialGradient>
<radialGradient id="paint9_radial_175_99" cx="0" cy="0" r="1" gradientUnits="userSpaceOnUse" gradientTransform="translate(59.9612 -22.1071) scale(48.6347 8.20725)">
<stop stop-color="#F63F00"/>
<stop offset="0.55" stop-color="#F66A00"/>
<stop offset="1" stop-color="#FA9300"/>
</radialGradient>
<linearGradient id="paint10_linear_175_99" x1="64.2531" y1="98.1353" x2="75.0684" y2="115.042" gradientUnits="userSpaceOnUse">
<stop stop-color="#DE376D"/>
<stop offset="0.99" stop-color="white"/>
</linearGradient>
<linearGradient id="paint11_linear_175_99" x1="3.03573" y1="73.2586" x2="43.3786" y2="45.5908" gradientUnits="userSpaceOnUse">
<stop stop-color="#F63F00"/>
<stop offset="0.55" stop-color="#F66A00"/>
<stop offset="1" stop-color="#FA9300"/>
</linearGradient>
<radialGradient id="paint12_radial_175_99" cx="0" cy="0" r="1" gradientUnits="userSpaceOnUse" gradientTransform="translate(34.2725 49.0469) scale(49.514 49.1508)">
<stop stop-color="#FCF800"/>
<stop offset="1" stop-color="#FC9700"/>
</radialGradient>
<linearGradient id="paint13_linear_175_99" x1="24.7675" y1="94.7062" x2="43.4597" y2="77.0907" gradientUnits="userSpaceOnUse">
<stop stop-color="#DE376D"/>
<stop offset="0.99" stop-color="white"/>
</linearGradient>
<radialGradient id="paint14_radial_175_99" cx="0" cy="0" r="1" gradientUnits="userSpaceOnUse" gradientTransform="translate(61.633 63.5946) scale(61.5256 57.5513)">
<stop stop-color="#FCEA10"/>
<stop offset="0.12" stop-color="#FCEA10"/>
<stop offset="0.3" stop-color="#FCEA10" stop-opacity="0.54"/>
<stop offset="0.47" stop-color="#FFEC00" stop-opacity="0.5"/>
<stop offset="0.63" stop-color="#FFEC00" stop-opacity="0.34"/>
<stop offset="0.78" stop-color="#FFEC00" stop-opacity="0.09"/>
<stop offset="0.91" stop-color="#060600" stop-opacity="0"/>
<stop offset="1" stop-opacity="0"/>
</radialGradient>
<radialGradient id="paint15_radial_175_99" cx="0" cy="0" r="1" gradientUnits="userSpaceOnUse" gradientTransform="translate(23.9929 74.0483) scale(30.4203 30.1971)">
<stop stop-color="#FFF261"/>
<stop offset="0.11" stop-color="#FAEE5F"/>
<stop offset="0.23" stop-color="#EDE15A"/>
<stop offset="0.36" stop-color="#D6CB52"/>
<stop offset="0.5" stop-color="#B7AD46"/>
<stop offset="0.64" stop-color="#8E8736"/>
<stop offset="0.78" stop-color="#5C5823"/>
<stop offset="0.92" stop-color="#23210D"/>
<stop offset="1"/>
</radialGradient>
<linearGradient id="paint16_linear_175_99" x1="74.3443" y1="21.1982" x2="59.7668" y2="79.5442" gradientUnits="userSpaceOnUse">
<stop stop-color="#DE376D"/>
<stop offset="0.99" stop-color="white"/>
</linearGradient>
<radialGradient id="paint17_radial_175_99" cx="0" cy="0" r="1" gradientUnits="userSpaceOnUse" gradientTransform="translate(59.9612 96.2649) scale(20.978 20.8241)">
<stop stop-color="#FCF800"/>
<stop offset="1" stop-color="#FC9700"/>
</radialGradient>
<radialGradient id="paint18_radial_175_99" cx="0" cy="0" r="1" gradientUnits="userSpaceOnUse" gradientTransform="translate(59.9612 96.2649) scale(20.978 20.8241)">
<stop stop-color="#FCF800"/>
<stop offset="1" stop-color="#FC9700"/>
</radialGradient>
<linearGradient id="paint19_linear_175_99" x1="59.4796" y1="98.3847" x2="58.8813" y2="103.748" gradientUnits="userSpaceOnUse">
<stop stop-color="#DE376D"/>
<stop offset="0.99" stop-color="white"/>
</linearGradient>
<radialGradient id="paint20_radial_175_99" cx="0" cy="0" r="1" gradientUnits="userSpaceOnUse" gradientTransform="translate(27.6985 42.1055) scale(21.8574 21.697)">
<stop stop-color="#FFF261"/>
<stop offset="0.11" stop-color="#FAEE5F"/>
<stop offset="0.23" stop-color="#EDE15A"/>
<stop offset="0.36" stop-color="#D6CB52"/>
<stop offset="0.5" stop-color="#B7AD46"/>
<stop offset="0.64" stop-color="#8E8736"/>
<stop offset="0.78" stop-color="#5C5823"/>
<stop offset="0.92" stop-color="#23210D"/>
<stop offset="1"/>
</radialGradient>
<radialGradient id="paint21_radial_175_99" cx="0" cy="0" r="1" gradientUnits="userSpaceOnUse" gradientTransform="translate(51.0005 34.2912) scale(21.983 21.8217)">
<stop stop-color="#FFF0B0"/>
<stop offset="1"/>
</radialGradient>
<linearGradient id="paint22_linear_175_99" x1="100.201" y1="117.983" x2="89.1547" y2="71.2268" gradientUnits="userSpaceOnUse">
<stop stop-color="#DE376D"/>
<stop offset="0.99" stop-color="white"/>
</linearGradient>
<radialGradient id="paint23_radial_175_99" cx="0" cy="0" r="1" gradientUnits="userSpaceOnUse" gradientTransform="translate(54.6225 98.0106) scale(15.1159 15.005)">
<stop stop-color="#FFF0B0"/>
<stop offset="1"/>
</radialGradient>
<linearGradient id="paint24_linear_175_99" x1="60.5055" y1="62.1815" x2="59.0614" y2="105.701" gradientUnits="userSpaceOnUse">
<stop stop-color="#F03A07"/>
<stop offset="0.09" stop-color="#F0360F"/>
<stop offset="0.23" stop-color="#F02C25"/>
<stop offset="0.4" stop-color="#F01B49"/>
<stop offset="0.53" stop-color="#F00C68"/>
<stop offset="0.71" stop-color="#D20970"/>
<stop offset="1" stop-color="#9E057D"/>
</linearGradient>
<linearGradient id="paint25_linear_175_99" x1="61.008" y1="71.6375" x2="58.9237" y2="86.1481" gradientUnits="userSpaceOnUse">
<stop stop-color="#F63F00"/>
<stop offset="0.55" stop-color="#F66A00"/>
<stop offset="1" stop-color="#FA9300"/>
</linearGradient>
<linearGradient id="paint26_linear_175_99" x1="59.9612" y1="58.5445" x2="59.9612" y2="77.7268" gradientUnits="userSpaceOnUse">
<stop stop-color="#960066"/>
<stop offset="1" stop-color="white"/>
</linearGradient>
<linearGradient id="paint27_linear_175_99" x1="60.5055" y1="62.1815" x2="59.0614" y2="105.701" gradientUnits="userSpaceOnUse">
<stop stop-color="#F03A07"/>
<stop offset="0.09" stop-color="#F0360F"/>
<stop offset="0.23" stop-color="#F02C25"/>
<stop offset="0.4" stop-color="#F01B49"/>
<stop offset="0.53" stop-color="#F00C68"/>
<stop offset="0.71" stop-color="#D20970"/>
<stop offset="1" stop-color="#9E057D"/>
</linearGradient>
<linearGradient id="paint28_linear_175_99" x1="63.1644" y1="62.2854" x2="61.7203" y2="105.805" gradientUnits="userSpaceOnUse">
<stop stop-color="#960066"/>
<stop offset="1" stop-color="white"/>
</linearGradient>
<linearGradient id="paint29_linear_175_99" x1="65.6139" y1="80.7611" x2="73.32" y2="86.4889" gradientUnits="userSpaceOnUse">
<stop stop-color="#960066"/>
<stop offset="1" stop-color="white"/>
</linearGradient>
<linearGradient id="paint30_linear_175_99" x1="59.71" y1="72.3649" x2="60.7209" y2="108.382" gradientUnits="userSpaceOnUse">
<stop stop-color="#FF818F"/>
<stop offset="1"/>
</linearGradient>
<linearGradient id="paint31_linear_175_99" x1="60.7149" y1="89.7599" x2="50.6004" y2="93.5914" gradientUnits="userSpaceOnUse">
<stop stop-color="#960066"/>
<stop offset="1" stop-color="white"/>
</linearGradient>
<radialGradient id="paint32_radial_175_99" cx="0" cy="0" r="1" gradientUnits="userSpaceOnUse" gradientTransform="translate(50.7283 34.2912) scale(17.1677 17.0417)">
<stop stop-color="#FFF261"/>
<stop offset="0.11" stop-color="#FAEE5F"/>
<stop offset="0.23" stop-color="#EDE15A"/>
<stop offset="0.36" stop-color="#D6CB52"/>
<stop offset="0.5" stop-color="#B7AD46"/>
<stop offset="0.64" stop-color="#8E8736"/>
<stop offset="0.78" stop-color="#5C5823"/>
<stop offset="0.92" stop-color="#23210D"/>
<stop offset="1"/>
</radialGradient>
<radialGradient id="paint33_radial_175_99" cx="0" cy="0" r="1" gradientUnits="userSpaceOnUse" gradientTransform="translate(29.2478 52.9956) scale(22.0039 21.8425)">
<stop stop-color="#FFF0B0"/>
<stop offset="1"/>
</radialGradient>
<linearGradient id="paint34_linear_175_99" x1="125.889" y1="33.6054" x2="52.7674" y2="40.0585" gradientUnits="userSpaceOnUse">
<stop stop-color="#DE376D"/>
<stop offset="0.99" stop-color="white"/>
</linearGradient>
<radialGradient id="paint35_radial_175_99" cx="0" cy="0" r="1" gradientUnits="userSpaceOnUse" gradientTransform="translate(36.429 22.2374) scale(36.1986 35.9331)">
<stop stop-color="#FFF261"/>
<stop offset="0.11" stop-color="#FAEE5F"/>
<stop offset="0.23" stop-color="#EDE15A"/>
<stop offset="0.36" stop-color="#D6CB52"/>
<stop offset="0.5" stop-color="#B7AD46"/>
<stop offset="0.64" stop-color="#8E8736"/>
<stop offset="0.78" stop-color="#5C5823"/>
<stop offset="0.92" stop-color="#23210D"/>
<stop offset="1"/>
</radialGradient>
<radialGradient id="paint36_radial_175_99" cx="0" cy="0" r="1" gradientUnits="userSpaceOnUse" gradientTransform="translate(59.747 47.6642) rotate(-77.7638) scale(36.0734 14.8214)">
<stop stop-color="#F33218"/>
<stop offset="0.1" stop-color="#CD2A14"/>
<stop offset="0.29" stop-color="#901E0E"/>
<stop offset="0.46" stop-color="#5C1309"/>
<stop offset="0.63" stop-color="#340B05" stop-opacity="0"/>
<stop offset="0.78" stop-color="#180502" stop-opacity="0"/>
<stop offset="0.91" stop-color="#060101" stop-opacity="0"/>
<stop offset="1" stop-opacity="0"/>
</radialGradient>
</defs>
</svg>
