<svg width="120" height="151" viewBox="0 0 120 151" fill="none" xmlns="http://www.w3.org/2000/svg">
<g clip-path="url(#clip0_176_181)">
<path style="mix-blend-mode:screen" opacity="0.5" d="M60.7502 130.006C93.4729 130.006 120 103.16 120 70.0427C120 36.9259 93.4729 10.0793 60.7502 10.0793C28.0275 10.0793 1.50043 36.9259 1.50043 70.0427C1.50043 103.16 28.0275 130.006 60.7502 130.006Z" fill="url(#paint0_radial_176_181)"/>
<path style="mix-blend-mode:screen" fill-rule="evenodd" clip-rule="evenodd" d="M100.944 63.7218L83.5948 59.9255L59.4561 63.7218C61.3098 65.8163 63.2758 67.806 65.3454 69.6821C65.7955 69.6441 100.944 63.7218 100.944 63.7218Z" fill="url(#paint1_linear_176_181)"/>
<path style="mix-blend-mode:color-burn" fill-rule="evenodd" clip-rule="evenodd" d="M76.4113 60.9884L59.5311 63.6838C61.3848 65.7783 63.3509 67.7681 65.4204 69.6441C65.7393 69.6441 75.286 68.1825 85.7143 66.4362C88.0025 66.0566 91.6599 64.3482 87.5898 62.1084C83.5198 59.8685 76.4113 60.9884 76.4113 60.9884Z" fill="url(#paint2_linear_176_181)"/>
<path style="mix-blend-mode:color-burn" fill-rule="evenodd" clip-rule="evenodd" d="M73.5417 61.444L59.4561 63.6838C61.3098 65.7783 63.2758 67.7681 65.3454 69.6441C65.5705 69.6441 69.4342 68.5622 75.6049 67.3473C82.7508 65.9617 79.7311 62.6399 73.5417 61.444Z" fill="url(#paint3_linear_176_181)"/>
<path style="mix-blend-mode:screen" fill-rule="evenodd" clip-rule="evenodd" d="M54.392 81.9633C54.392 81.9633 56.2676 116.282 56.4364 117.497C56.4832 118.404 56.6024 119.305 56.7927 120.193L60.5439 121.085C60.8065 120.193 78.1556 81.8874 78.1556 81.8874L54.392 81.9633Z" fill="url(#paint4_linear_176_181)"/>
<path style="mix-blend-mode:multiply" fill-rule="evenodd" clip-rule="evenodd" d="M56.4363 117.497C56.4832 118.404 56.6024 119.305 56.7927 120.193L60.5439 121.085C60.5439 121.085 61.2003 119.509 62.1756 117.288C59.7936 119.187 57.5805 120.117 56.3051 116.567C56.3988 117.08 56.4363 117.402 56.4363 117.497Z" fill="url(#paint5_linear_176_181)"/>
<path style="mix-blend-mode:color-burn" fill-rule="evenodd" clip-rule="evenodd" d="M74.0294 81.8874L54.392 81.9633C54.392 81.9633 55.1047 94.2824 55.6861 104.419C56.6427 114.403 72.21 97.0348 74.0294 81.8874Z" fill="url(#paint6_linear_176_181)"/>
<path style="mix-blend-mode:screen" fill-rule="evenodd" clip-rule="evenodd" d="M79.0935 33.4269C73.701 31.8878 68.1935 30.7959 62.6258 30.162L28.0025 38.4761L36.2738 82.305L45.6518 86.1013L79.0935 33.4269Z" fill="url(#paint7_linear_176_181)"/>
<path style="mix-blend-mode:color-burn" fill-rule="evenodd" clip-rule="evenodd" d="M48.8965 43.2025C49.4592 43.0886 65.7768 39.1025 70.1281 37.508C73.1164 36.3687 76.035 35.0503 78.8684 33.5598C74.6102 33.7801 70.3924 34.5064 66.3019 35.7237C60.2462 37.5617 54.4091 40.0698 48.8965 43.2025Z" fill="url(#paint8_linear_176_181)"/>
<path style="mix-blend-mode:color-burn" fill-rule="evenodd" clip-rule="evenodd" d="M62.6258 30.162L28.0025 38.4761C28.0025 38.4761 58.8934 31.0732 64.8203 31.7565L79.0935 33.4269C73.701 31.8878 68.1935 30.7959 62.6258 30.162Z" fill="url(#paint9_linear_176_181)"/>
<path fill-rule="evenodd" clip-rule="evenodd" d="M42.5195 45.1766C41.379 45.0728 40.2602 44.7977 39.1997 44.3604C35.3224 42.6567 31.5627 40.6908 27.9462 38.4761L36.2176 82.305L45.5955 86.1013L42.5195 45.1766Z" fill="url(#paint10_linear_176_181)"/>
<path style="mix-blend-mode:color-burn" fill-rule="evenodd" clip-rule="evenodd" d="M43.2323 67.1765L41.2629 47.8151C41.2629 47.8151 30.1407 40.2224 29.8218 40.7349C29.503 41.2474 34.9234 68.0686 35.4486 70.6502C35.9737 73.2317 42.557 75.7183 43.2323 67.1765Z" fill="url(#paint11_linear_176_181)"/>
<path fill-rule="evenodd" clip-rule="evenodd" d="M80.1438 34.376L79.0935 33.4269C67.7967 38.2039 55.9081 41.397 43.7574 42.9178L42.6321 45.2905L45.6705 86.0254L46.6646 86.5379L64.3889 83.5198C64.3889 83.5198 60.6377 117.288 60.6377 118.693C60.6377 120.098 60.6377 121.085 60.6377 121.085C60.7777 121.042 60.9105 120.978 61.0316 120.895C73.3542 99.5214 86.5583 80.3119 101.282 64.2153L101 63.7218L74.1982 67.7839L80.1438 34.376Z" fill="url(#paint12_radial_176_181)"/>
<path style="mix-blend-mode:color-burn" fill-rule="evenodd" clip-rule="evenodd" d="M101.282 64.2153C101.282 64.2153 74.3482 71.9219 72.679 70.7451C71.8725 70.1566 74.3295 61.2542 76.2051 52.3517C78.0807 43.1646 79.5249 34.0343 79.5249 34.0343L80.1063 34.8505L74.1982 67.7839L100.888 63.7408L101.282 64.2153Z" fill="url(#paint13_linear_176_181)"/>
<path style="mix-blend-mode:color-burn" fill-rule="evenodd" clip-rule="evenodd" d="M101.15 64.1014C101.059 64.2934 100.952 64.4775 100.832 64.6519C94.5579 71.5942 88.66 78.8749 83.1635 86.462C84.0263 84.9814 86.6708 80.7674 89.6155 76.5345C93.3667 71.1057 95.3736 68.6191 95.7299 67.0436C96.0863 65.4681 75.2673 67.7649 75.2673 67.7649C75.2673 67.7649 98.9934 63.9686 101.019 63.8357H101.282C101.282 63.8357 101.282 63.9496 101.15 64.1014Z" fill="url(#paint14_linear_176_181)"/>
<path style="mix-blend-mode:color-burn" fill-rule="evenodd" clip-rule="evenodd" d="M80.1438 34.376L79.0934 33.4269C77.0866 34.319 74.9671 35.1542 72.7727 35.9515C80.6502 36.8246 76.13 53.7374 75.0234 63.3042L80.1438 34.376Z" fill="url(#paint15_linear_176_181)"/>
<path style="mix-blend-mode:color-burn" fill-rule="evenodd" clip-rule="evenodd" d="M60.6189 121.066C60.6189 121.066 60.6189 120.079 60.6189 118.674C60.6189 117.269 64.3701 83.5198 64.3701 83.5198L46.6458 86.5379L46.9272 86.405C49.5717 85.1143 64.6514 78.6794 68.1213 79.097C71.5911 79.5146 60.6189 121.066 60.6189 121.066Z" fill="url(#paint16_linear_176_181)"/>
<path fill-rule="evenodd" clip-rule="evenodd" d="M62.307 102.502C61.463 110.436 60.6565 118.01 60.6377 118.655C60.6377 120.041 60.6377 121.047 60.6377 121.047C60.7777 121.004 60.9105 120.94 61.0316 120.857C64.9328 114.087 68.9715 107.538 73.1479 101.211C70.0344 105.007 63.0384 117.326 61.8943 117.231C60.7502 117.137 62.307 105.216 62.307 102.502Z" fill="white"/>
<path fill-rule="evenodd" clip-rule="evenodd" d="M45.6705 86.0444L46.6646 86.5569L50.0781 85.9685C43.945 87.3731 45.4454 73.0988 44.0012 63.7408L45.6705 86.0444Z" fill="white"/>
<path style="mix-blend-mode:screen" fill-rule="evenodd" clip-rule="evenodd" d="M101.282 64.2153L101 63.7218L74.1982 67.7839C83.3434 67.8302 92.453 66.6299 101.282 64.2153Z" fill="url(#paint17_radial_176_181)"/>
<path style="mix-blend-mode:screen" fill-rule="evenodd" clip-rule="evenodd" d="M64.3889 83.5198C64.3889 83.5198 60.6377 117.288 60.6377 118.693C60.6377 120.098 60.6377 121.085 60.6377 121.085C60.7777 121.042 60.9105 120.978 61.0316 120.895C65.0266 113.891 64.3889 83.5198 64.3889 83.5198Z" fill="url(#paint18_radial_176_181)"/>
<path style="mix-blend-mode:screen" fill-rule="evenodd" clip-rule="evenodd" d="M80.1438 34.376L79.0935 33.4269C67.7967 38.2039 55.9081 41.397 43.7574 42.9178L42.6321 45.2905C55.3178 42.3259 67.8393 38.6826 80.1438 34.376Z" fill="url(#paint19_radial_176_181)"/>
<path fill-rule="evenodd" clip-rule="evenodd" d="M43.7574 42.9368L37.2491 43.3734C38.7949 44.5758 40.6827 45.2415 42.6321 45.2715C45.0141 44.4553 44.864 43.6581 43.7574 42.9368Z" fill="white"/>
<path style="mix-blend-mode:screen" fill-rule="evenodd" clip-rule="evenodd" d="M45.1266 47.4544C43.1385 50.3966 45.4455 83.311 48.1275 83.5198C50.8096 83.7286 66.1332 72.1307 70.4658 66.8158C74.7984 61.5009 80.6502 36.2362 77.4617 37.5839C74.2732 38.9316 47.1147 44.6641 45.1266 47.4544Z" fill="url(#paint20_linear_176_181)"/>
<path style="mix-blend-mode:screen" fill-rule="evenodd" clip-rule="evenodd" d="M66.9584 80.1031C66.7334 80.5776 61.8943 111.328 61.8943 113.53C61.8943 115.732 61.5567 118.598 62.0444 117.744C66.6686 108.258 71.9653 99.1224 77.8931 90.4102C87.271 77.1229 96.649 68.2964 95.8987 67.4422C95.1485 66.588 68.2901 77.4077 66.9584 80.1031Z" fill="url(#paint21_linear_176_181)"/>
<path style="mix-blend-mode:screen" fill-rule="evenodd" clip-rule="evenodd" d="M71.0284 37.0145C67.2773 38.5899 43.3448 44.4553 42.8947 44.6072C42.8947 44.6072 43.0447 45.2715 42.6321 45.3664C41.4553 45.1865 40.3034 44.868 39.1997 44.4173C35.326 42.706 31.5668 40.7403 27.9462 38.533C27.9462 38.533 47.2835 33.6926 57.8431 34.0343C68.4026 34.376 74.7046 35.439 71.0284 37.0145Z" fill="url(#paint22_linear_176_181)"/>
<path fill-rule="evenodd" clip-rule="evenodd" d="M38.8058 44.3414C40.0857 45.0265 41.4386 45.5615 42.8384 45.9359C43.5136 45.841 53.4542 42.5192 54.0919 42.2914C54.7296 42.0636 44.0387 44.9678 42.9321 44.9299C41.8255 44.8919 38.8058 44.3414 38.8058 44.3414Z" fill="white"/>
<path style="mix-blend-mode:screen" fill-rule="evenodd" clip-rule="evenodd" d="M36.2738 82.305C36.2738 82.305 34.9984 75.5285 38.6933 75.8891C42.3882 76.2498 46.8521 86.5189 46.6646 86.5569C46.477 86.5948 36.2738 82.305 36.2738 82.305Z" fill="url(#paint23_linear_176_181)"/>
<path style="mix-blend-mode:screen" opacity="0.54" d="M90.7443 47.8411C91.1099 23.4702 71.0957 3.40146 46.0412 3.01641C20.9867 2.63136 0.379552 22.0758 0.0138704 46.4467C-0.351811 70.8177 19.6624 90.8864 44.7169 91.2715C69.7715 91.6565 90.3786 72.2121 90.7443 47.8411Z" fill="url(#paint24_radial_176_181)"/>
<path style="mix-blend-mode:color-dodge" opacity="0.5" d="M55.776 58.0579C62.6904 51.0602 62.6904 39.7146 55.776 32.7169C48.8615 25.7192 37.651 25.7192 30.7366 32.7169C23.8221 39.7146 23.8221 51.0602 30.7366 58.0579C37.651 65.0556 48.8615 65.0556 55.776 58.0579Z" fill="url(#paint25_radial_176_181)"/>
</g>
<defs>
<radialGradient id="paint0_radial_176_181" cx="0" cy="0" r="1" gradientUnits="userSpaceOnUse" gradientTransform="translate(60.7502 70.0427) scale(59.2498 59.9634)">
<stop offset="0.33" stop-color="#B41E87"/>
<stop offset="0.38" stop-color="#A21B7A"/>
<stop offset="0.63" stop-color="#69124F" stop-opacity="0.42"/>
<stop offset="0.75" stop-color="#3C0A2D" stop-opacity="0"/>
</radialGradient>
<linearGradient id="paint1_linear_176_181" x1="88.9778" y1="57.7805" x2="70.5567" y2="69.9151" gradientUnits="userSpaceOnUse">
<stop stop-color="#E52EA8"/>
<stop offset="1"/>
</linearGradient>
<linearGradient id="paint2_linear_176_181" x1="86.7083" y1="60.7607" x2="71.2226" y2="65.4031" gradientUnits="userSpaceOnUse">
<stop stop-color="#FFF7F5"/>
<stop offset="0.16" stop-color="#F9EFF3"/>
<stop offset="0.41" stop-color="#E7D8ED"/>
<stop offset="0.73" stop-color="#CBB4E4"/>
<stop offset="1" stop-color="#AE8EDB"/>
</linearGradient>
<linearGradient id="paint3_linear_176_181" x1="80.6689" y1="63.7977" x2="65.5434" y2="66.097" gradientUnits="userSpaceOnUse">
<stop stop-color="#FFF7F5"/>
<stop offset="0.16" stop-color="#F9EFF3"/>
<stop offset="0.41" stop-color="#E7D8ED"/>
<stop offset="0.73" stop-color="#CBB4E4"/>
<stop offset="1" stop-color="#AE8EDB"/>
</linearGradient>
<linearGradient id="paint4_linear_176_181" x1="69.4904" y1="126.267" x2="65.8987" y2="83.2231" gradientUnits="userSpaceOnUse">
<stop stop-color="#E52EA8"/>
<stop offset="1"/>
</linearGradient>
<linearGradient id="paint5_linear_176_181" x1="59.7749" y1="109.866" x2="59.0642" y2="120.628" gradientUnits="userSpaceOnUse">
<stop stop-color="#FFF7F5"/>
<stop offset="0.16" stop-color="#F9EFF3"/>
<stop offset="0.41" stop-color="#E7D8ED"/>
<stop offset="0.73" stop-color="#CBB4E4"/>
<stop offset="1" stop-color="#AE8EDB"/>
</linearGradient>
<linearGradient id="paint6_linear_176_181" x1="62.2132" y1="110.759" x2="64.3837" y2="80.0497" gradientUnits="userSpaceOnUse">
<stop stop-color="#FFF7F5"/>
<stop offset="0.16" stop-color="#F9EFF3"/>
<stop offset="0.41" stop-color="#E7D8ED"/>
<stop offset="0.73" stop-color="#CBB4E4"/>
<stop offset="1" stop-color="#AE8EDB"/>
</linearGradient>
<linearGradient id="paint7_linear_176_181" x1="53.5292" y1="37.8307" x2="53.2795" y2="60.4759" gradientUnits="userSpaceOnUse">
<stop stop-color="#E52EA8"/>
<stop offset="1"/>
</linearGradient>
<linearGradient id="paint8_linear_176_181" x1="67.6711" y1="43.2974" x2="59.9997" y2="33.5919" gradientUnits="userSpaceOnUse">
<stop stop-color="#FFF7F5"/>
<stop offset="0.16" stop-color="#F9EFF3"/>
<stop offset="0.41" stop-color="#E7D8ED"/>
<stop offset="0.73" stop-color="#CBB4E4"/>
<stop offset="1" stop-color="#AE8EDB"/>
</linearGradient>
<linearGradient id="paint9_linear_176_181" x1="53.698" y1="25.8152" x2="53.4483" y2="42.4432" gradientUnits="userSpaceOnUse">
<stop stop-color="#FFF7F5"/>
<stop offset="0.16" stop-color="#F9EFF3"/>
<stop offset="0.41" stop-color="#E7D8ED"/>
<stop offset="0.73" stop-color="#CBB4E4"/>
<stop offset="1" stop-color="#AE8EDB"/>
</linearGradient>
<linearGradient id="paint10_linear_176_181" x1="34.1357" y1="128.81" x2="37.1324" y2="56.5876" gradientUnits="userSpaceOnUse">
<stop stop-color="#FF91A7"/>
<stop offset="0.1" stop-color="#FC8AA9"/>
<stop offset="0.24" stop-color="#F275AE"/>
<stop offset="0.42" stop-color="#E353B7"/>
<stop offset="0.62" stop-color="#CE25C3"/>
<stop offset="0.76" stop-color="#BD00CC"/>
<stop offset="1" stop-color="#8B00CC"/>
</linearGradient>
<linearGradient id="paint11_linear_176_181" x1="40.9253" y1="72.1877" x2="32.0589" y2="29.8815" gradientUnits="userSpaceOnUse">
<stop stop-color="#FFF7F5"/>
<stop offset="0.16" stop-color="#F9EFF3"/>
<stop offset="0.41" stop-color="#E7D8ED"/>
<stop offset="0.73" stop-color="#CBB4E4"/>
<stop offset="1" stop-color="#AE8EDB"/>
</linearGradient>
<radialGradient id="paint12_radial_176_181" cx="0" cy="0" r="1" gradientUnits="userSpaceOnUse" gradientTransform="translate(66.8834 70.1187) scale(43.9637 44.4933)">
<stop stop-color="#FF76DE"/>
<stop offset="0.11" stop-color="#FB6FDD"/>
<stop offset="0.28" stop-color="#EF5ADA"/>
<stop offset="0.48" stop-color="#DD38D5"/>
<stop offset="0.71" stop-color="#C30ACE"/>
<stop offset="0.76" stop-color="#BD00CC"/>
<stop offset="1" stop-color="#8B00CC"/>
</radialGradient>
<linearGradient id="paint13_linear_176_181" x1="72.679" y1="75.4146" x2="80.7813" y2="63.6412" gradientUnits="userSpaceOnUse">
<stop stop-color="#FFF7F5"/>
<stop offset="0.16" stop-color="#F9EFF3"/>
<stop offset="0.41" stop-color="#E7D8ED"/>
<stop offset="0.73" stop-color="#CBB4E4"/>
<stop offset="1" stop-color="#AE8EDB"/>
</linearGradient>
<linearGradient id="paint14_linear_176_181" x1="79.5249" y1="76.8572" x2="96.9678" y2="63.8278" gradientUnits="userSpaceOnUse">
<stop stop-color="#FFF7F5"/>
<stop offset="0.16" stop-color="#F9EFF3"/>
<stop offset="0.41" stop-color="#E7D8ED"/>
<stop offset="0.73" stop-color="#CBB4E4"/>
<stop offset="1" stop-color="#AE8EDB"/>
</linearGradient>
<linearGradient id="paint15_linear_176_181" x1="73.598" y1="49.8082" x2="85.7551" y2="42.4589" gradientUnits="userSpaceOnUse">
<stop stop-color="#FFF7F5"/>
<stop offset="0.16" stop-color="#F9EFF3"/>
<stop offset="0.41" stop-color="#E7D8ED"/>
<stop offset="0.73" stop-color="#CBB4E4"/>
<stop offset="1" stop-color="#AE8EDB"/>
</linearGradient>
<linearGradient id="paint16_linear_176_181" x1="71.0284" y1="70.2325" x2="57.8993" y2="95.0074" gradientUnits="userSpaceOnUse">
<stop stop-color="#FFF7F5"/>
<stop offset="0.16" stop-color="#F9EFF3"/>
<stop offset="0.41" stop-color="#E7D8ED"/>
<stop offset="0.73" stop-color="#CBB4E4"/>
<stop offset="1" stop-color="#AE8EDB"/>
</linearGradient>
<radialGradient id="paint17_radial_176_181" cx="0" cy="0" r="1" gradientUnits="userSpaceOnUse" gradientTransform="translate(79.6749 68.695) scale(46.8896 47.4544)">
<stop stop-color="#FFE3C7"/>
<stop offset="0.11" stop-color="#FADFC3"/>
<stop offset="0.23" stop-color="#EDD3B9"/>
<stop offset="0.36" stop-color="#D6BFA7"/>
<stop offset="0.5" stop-color="#B7A38F"/>
<stop offset="0.64" stop-color="#8E7F6F"/>
<stop offset="0.78" stop-color="#5C5248"/>
<stop offset="0.92" stop-color="#231F1B"/>
<stop offset="1"/>
</radialGradient>
<radialGradient id="paint18_radial_176_181" cx="0" cy="0" r="1" gradientUnits="userSpaceOnUse" gradientTransform="translate(64.689 109.487) scale(45.2204 45.7651)">
<stop stop-color="#FFE3C7"/>
<stop offset="0.11" stop-color="#FADFC3"/>
<stop offset="0.23" stop-color="#EDD3B9"/>
<stop offset="0.36" stop-color="#D6BFA7"/>
<stop offset="0.5" stop-color="#B7A38F"/>
<stop offset="0.64" stop-color="#8E7F6F"/>
<stop offset="0.78" stop-color="#5C5248"/>
<stop offset="0.92" stop-color="#231F1B"/>
<stop offset="1"/>
</radialGradient>
<radialGradient id="paint19_radial_176_181" cx="0" cy="0" r="1" gradientUnits="userSpaceOnUse" gradientTransform="translate(62.2695 42.2155) scale(35.6924 36.1223)">
<stop offset="0.01" stop-color="#FFBBEC"/>
<stop offset="0.12" stop-color="#FAB8E8"/>
<stop offset="0.24" stop-color="#EDAEDB"/>
<stop offset="0.37" stop-color="#D69DC6"/>
<stop offset="0.5" stop-color="#B786A9"/>
<stop offset="0.64" stop-color="#8E6884"/>
<stop offset="0.78" stop-color="#5C4456"/>
<stop offset="0.92" stop-color="#231A20"/>
<stop offset="1"/>
</radialGradient>
<linearGradient id="paint20_linear_176_181" x1="58.537" y1="80.3119" x2="61.4181" y2="46.5301" gradientUnits="userSpaceOnUse">
<stop stop-color="#E52EA8"/>
<stop offset="1"/>
</linearGradient>
<linearGradient id="paint21_linear_176_181" x1="73.3917" y1="111.575" x2="80.2231" y2="80.5357" gradientUnits="userSpaceOnUse">
<stop stop-color="#E52EA8"/>
<stop offset="1"/>
</linearGradient>
<linearGradient id="paint22_linear_176_181" x1="28.0025" y1="39.6339" x2="72.0788" y2="39.6339" gradientUnits="userSpaceOnUse">
<stop stop-color="#E52EA8"/>
<stop offset="1"/>
</linearGradient>
<linearGradient id="paint23_linear_176_181" x1="41.3754" y1="89.1764" x2="41.3754" y2="77.7873" gradientUnits="userSpaceOnUse">
<stop stop-color="#E52EA8"/>
<stop offset="1"/>
</linearGradient>
<radialGradient id="paint24_radial_176_181" cx="0" cy="0" r="1" gradientUnits="userSpaceOnUse" gradientTransform="translate(42.1312 39.1726) rotate(-9.018) scale(45.9462 44.9164)">
<stop stop-color="#FF00A1"/>
<stop offset="0.12" stop-color="#C8007E" stop-opacity="0.51"/>
<stop offset="0.25" stop-color="#93005D" stop-opacity="0.51"/>
<stop offset="0.405" stop-color="#660041" stop-opacity="0.38"/>
<stop offset="0.58" stop-opacity="0"/>
</radialGradient>
<radialGradient id="paint25_radial_176_181" cx="0" cy="0" r="1" gradientUnits="userSpaceOnUse" gradientTransform="translate(43.2586 45.3926) scale(17.7055 17.9188)">
<stop stop-color="white"/>
<stop offset="0.12" stop-color="#E8E8E8"/>
<stop offset="0.37" stop-color="#ACACAC" stop-opacity="0.78"/>
<stop offset="0.72" stop-color="#4E4E4E" stop-opacity="0.28"/>
<stop offset="1" stop-opacity="0"/>
</radialGradient>
<clipPath id="clip0_176_181">
<rect width="120" height="151" fill="white"/>
</clipPath>
</defs>
</svg>
